Coordinates
version=1
nRows=4
nColumns=107
inDegrees=yes

Units are S.I. units (second, meters, Newtons, ...)
If the header above contains a line with 'inDegrees', this indicates whether rotational values are in degrees (yes) or radians (no).

endheader
time	sternoclavicular_r2	sternoclavicular_r3	unrotscap_r3	unrotscap_r2	acromioclavicular_r2	acromioclavicular_r3	acromioclavicular_r1	unrothum_r1	unrothum_r3	unrothum_r2	elv_angle	shoulder_elv	shoulder1_r2	shoulder_rot	elbow_flexion	pro_sup	deviation	flexion	proximal_distal_r1	proximal_distal_r3	cmc_flexion	cmc_abduction	mp_flexion	ip_flexion	mcp2_flexion	mcp2_abduction	pm2_flexion	md2_flexion	mcp3_flexion	mcp3_abduction	pm3_flexion	md3_flexion	mcp4_flexion	mcp4_abduction	pm4_flexion	md4_flexion	mcp5_flexion	mcp5_abduction	pm5_flexion	md5_flexion	bicpt_tx	bicpt_ty	bicpt_tz	bicpt2_tx	bicpt2_ty	bicpt2_tz	ptpt_tx	ptpt_ty	ptpt_tz	FCUpt_tx	FCUpt_ty	FCUpt_tz	EDCpt_tx	EDCpt_ty	EDCpt_tz	APLpt_tx	APLpt_ty	APLpt_tz	FPLpt_tx	FPLpt_ty	FPLpt_tz	FPLpt2_tx	FPLpt2_ty	FPLpt2_tz	PEC1pt2_tx	PEC1pt2_ty	PEC1pt2_tz	PEC1pt3_tx	PEC1pt3_ty	PEC1pt3_tz	PEC2pt2_tx	PEC2pt2_ty	PEC2pt2_tz	PEC2pt3_tx	PEC2pt3_ty	PEC2pt3_tz	PEC3pt2_tx	PEC3pt2_ty	PEC3pt2_tz	PEC3pt3_tx	PEC3pt3_ty	PEC3pt3_tz	DELT2pt2a_tx	DELT2pt2a_ty	DELT2pt2a_tz	DELT2pt2_tx	DELT2pt2_ty	DELT2pt2_tz	LAT1pt2_tx	LAT1pt2_ty	LAT1pt2_tz	LAT1pt3_tx	LAT1pt3_ty	LAT1pt3_tz	LAT2pt2_tx	LAT2pt2_ty	LAT2pt2_tz	LAT2pt3_tx	LAT2pt3_ty	LAT2pt3_tz	LAT3pt2_tx	LAT3pt2_ty	LAT3pt2_tz	LAT3pt3_tx	LAT3pt3_ty	LAT3pt3_tz
      0.36666667	     -0.31287064	      0.13251724	     -0.13251724	      0.31287064	     -0.06334994	      0.51197194	      0.23012786	     -0.23012786	     -0.51197194	      0.06334994	    101.68095568	     74.07490524	     -1.77466746	    -38.28358296	     30.75612573	     79.13866384	      0.31558135	     -0.67231352	      0.34677202	     -0.33615676	     40.28954063	    -12.13302906	     -3.06486876	      7.64337571	     99.25956836	     13.04816217	     81.88612984	     70.51400252	     95.77430466	      1.78438923	     83.39844000	     49.88882228	     96.53098375	    -13.42552397	     90.87386329	     43.30169323	    100.20476919	    -14.19074190	     90.42113997	      5.50602890	      0.00091732	     -0.03112512	     -0.00486780	      0.01489531	     -0.01855505	     -0.00221803	      0.00170255	     -0.06868106	     -0.00642504	      0.01195706	     -0.18246341	     -0.00008746	     -0.00949662	      0.00320875	     -0.00054966	      0.00030935	      0.00012374	      0.00061871	      0.00039597	      0.00118792	      0.00066821	     -0.00001011	     -0.00010545	     -0.00012654	      0.00242801	      0.00851862	      0.00592600	     -0.00794248	      0.01917719	     -0.01818952	      0.00242801	      0.00851862	      0.00592600	      0.00053499	      0.01777799	     -0.00934168	      0.00386794	      0.00473710	      0.01576877	      0.00000000	      0.00733550	      0.00000000	     -0.00695482	     -0.03214031	     -0.00604585	      0.02209133	     -0.00104859	     -0.01191487	     -0.00086421	      0.01448577	     -0.00592600	      0.00238686	      0.02090560	     -0.01728416	     -0.00580254	      0.01255159	     -0.00530871	     -0.01209891	      0.02650238	     -0.02967114	     -0.02271632	      0.01403309	     -0.00711943	     -0.01506191	      0.03061765	     -0.03707864
      0.40000000	     -0.31633899	      0.13398627	     -0.13398627	      0.31633899	     -0.06405221	      0.51764744	      0.23267896	     -0.23267896	     -0.51764744	      0.06405221	    100.69434425	     74.89606834	     -1.75744785	    -33.67273530	     30.18574435	     74.82196553	      0.33986076	     -0.66419625	      0.36669697	     -0.33209813	     39.67923401	    -12.10385565	     -1.97071132	      5.90492272	     99.38841507	     12.97900997	     81.75517278	     72.42710120	     95.98705114	      1.47797746	     83.36016283	     51.12470056	     96.84132929	    -13.46231643	     90.88434484	     43.17622372	    100.87615118	    -14.19346858	     90.64209584	      5.48141456	      0.00089845	     -0.03105975	     -0.00485727	      0.01525246	     -0.01840011	     -0.00290268	      0.00202150	     -0.06847482	     -0.00607731	      0.01147319	     -0.18259853	     -0.00017704	     -0.00897861	      0.00298388	     -0.00043215	      0.00031012	      0.00012405	      0.00062024	      0.00039695	      0.00119085	      0.00066986	     -0.00001085	     -0.00011730	     -0.00014076	      0.00245493	      0.00861306	      0.00599169	     -0.00803053	      0.01938978	     -0.01839116	      0.00245493	      0.00861306	      0.00599169	      0.00054092	      0.01797507	     -0.00944523	      0.00389953	      0.00478961	      0.01584809	      0.00000000	      0.00750011	      0.00000000	     -0.00703191	     -0.03249660	     -0.00618257	      0.02041598	     -0.00088429	     -0.00936610	     -0.00087379	      0.01464635	     -0.00599169	      0.00241332	      0.02113735	     -0.01747576	     -0.00586686	      0.01269073	     -0.00536756	     -0.01223303	      0.02679617	     -0.03000006	     -0.02296815	      0.01418866	     -0.00719835	     -0.01522888	      0.03095707	     -0.03748967
      0.43333333	     -0.31365383	      0.13284896	     -0.13284896	      0.31365383	     -0.06350852	      0.51325352	      0.23070392	     -0.23070392	     -0.51325352	      0.06350852	    101.44499225	     74.26033140	     -1.77054912	    -37.16844242	     30.62176303	     78.08711749	      0.32829100	     -0.65892513	      0.35732322	     -0.32946257	     40.21273962	    -12.04734659	     -3.04666567	      7.63321141	     99.18578206	     13.04163614	     82.07058543	     70.26651196	     95.75594700	      1.64322784	     83.50433318	     49.38613529	     96.47738803	    -13.42506537	     90.97302075	     43.12830388	    100.33576745	    -14.18923563	     90.47995312	      5.51950177	      0.00091287	     -0.03110972	     -0.00486532	      0.01498629	     -0.01851855	     -0.00238725	      0.00178024	     -0.06863082	     -0.00634034	      0.01183865	     -0.18249682	     -0.00011059	     -0.00937043	      0.00315344	     -0.00052009	      0.00031057	      0.00012423	      0.00062113	      0.00039753	      0.00119258	      0.00067083	     -0.00001021	     -0.00010695	     -0.00012834	      0.00243409	      0.00853995	      0.00594083	     -0.00796236	      0.01922519	     -0.01823505	      0.00243409	      0.00853995	      0.00594083	      0.00053633	      0.01782249	     -0.00936506	      0.00387510	      0.00474896	      0.01578683	      0.00000000	      0.00737251	      0.00000000	     -0.00697223	     -0.03222076	     -0.00607659	      0.02171239	     -0.00100843	     -0.01127914	     -0.00086637	      0.01452203	     -0.00594083	      0.00239283	      0.02095793	     -0.01732743	     -0.00581706	      0.01258301	     -0.00532199	     -0.01212920	      0.02656872	     -0.02974541	     -0.02277319	      0.01406822	     -0.00713725	     -0.01509961	      0.03069430	     -0.03717145
      0.46666667	     -0.31412531	      0.13304866	     -0.13304866	      0.31412531	     -0.06360399	      0.51402504	      0.23105072	     -0.23105072	     -0.51402504	      0.06360399	    101.25288013	     74.37195946	     -1.76719614	    -36.42185579	     30.62152751	     77.47043668	      0.33403972	     -0.65005721	      0.36200876	     -0.32502860	     40.26052546	    -11.99151242	     -3.60061393	      8.29272826	     99.08863508	     13.02445842	     81.93738537	     70.10642008	     95.72052913	      1.62998413	     83.39614066	     50.26046002	     96.43431542	    -13.42850143	     90.88128416	     43.08947791	    100.36243214	    -14.19069959	     90.57967955	      5.51488650	      0.00091287	     -0.03110970	     -0.00486532	      0.01503837	     -0.01851849	     -0.00248571	      0.00182581	     -0.06860136	     -0.00629066	      0.01176938	     -0.18251625	     -0.00012374	     -0.00929643	      0.00312117	     -0.00050305	      0.00031121	      0.00012449	      0.00062243	      0.00039835	      0.00119506	      0.00067222	     -0.00001015	     -0.00010601	     -0.00012721	      0.00243775	      0.00855278	      0.00594976	     -0.00797433	      0.01925409	     -0.01826246	      0.00243775	      0.00855278	      0.00594976	      0.00053713	      0.01784929	     -0.00937914	      0.00387940	      0.00475609	      0.01579765	      0.00000000	      0.00739483	      0.00000000	     -0.00698271	     -0.03226919	     -0.00609513	      0.02144906	     -0.00098169	     -0.01086037	     -0.00086767	      0.01454386	     -0.00594976	      0.00239643	      0.02098944	     -0.01735347	     -0.00582581	      0.01260193	     -0.00532999	     -0.01214743	      0.02660866	     -0.02979013	     -0.02280742	      0.01408937	     -0.00714798	     -0.01512231	      0.03074044	     -0.03722733
